<?xml version="1.0" encoding="UTF-8"?>
<svg id="Layer_2" fill="#111111" data-name="Layer 2" xmlns="http://www.w3.org/2000/svg" viewBox="0 0 639.56 364.72">
  <g id="Layer_1-2" data-name="Layer 1">
    <g>
      <path d="M627.56,92.48c-8-26.83-21.1-47.92-39.3-63.3-18.2-15.37-42.98-23.06-74.35-23.06-23.53,0-43.37,4.55-59.53,13.65-16.16,9.1-29.11,21.73-38.83,37.88-9.73,16.16-16.78,35.06-21.18,56.71-2.67,13.13-4.51,26.96-5.56,41.47-.96-.66-1.93-1.3-2.92-1.94-15.69-10.04-34.35-15.06-56-15.06-11.61,0-21.57,1.5-29.89,4.47-8.32,2.99-14.82,6.67-19.53,11.06,1.57-1.57,3.45-4.39,5.65-8.47,2.19-4.07,5.88-10.59,11.06-19.53,5.18-8.94,12.78-21.41,22.83-37.42,10.03-16,23.53-36.86,40.47-62.59L315.31,0c-21.34,35.14-39.06,64.87-53.18,89.18-14.12,24.32-25.5,44.87-34.12,61.65-5.87,11.41-10.75,21.55-14.66,30.42-5.85-5.91-12.57-11.11-20.17-15.6-14.9-8.78-32.55-13.49-52.94-14.12L238.13,11.77H14.59v46.12h129.89L57.89,192.48c5.96-.94,12.86-1.65,20.71-2.12,7.84-.47,15.53-.71,23.06-.71,24.78,0,44.47,5.65,59.06,16.94,14.59,11.3,21.89,26.2,21.89,44.71,0,17.26-3.85,30.67-11.53,40.24-7.69,9.57-17.65,16.16-29.89,19.76-12.24,3.61-25.26,5.41-39.06,5.41-16.32,0-31.69-3.06-46.12-9.17-14.44-6.12-25.73-12.31-33.89-18.59L0,333.66c6.27,5.96,15.14,11.29,26.59,16,11.45,4.71,24.08,8.39,37.88,11.06,13.8,2.66,27.13,4,40,4,28.86,0,53.41-5.1,73.65-15.3,16.2-8.16,29.26-18.74,39.23-31.72,9.83,14.03,22.4,25.07,37.71,33.13,17.57,9.25,37.02,13.88,58.36,13.88,23.53,0,44.47-4.63,62.82-13.88,17.34-8.74,31.11-21.2,41.3-37.37,9.89,15.67,22.55,28.05,38,37.14,16,9.41,35.45,14.12,58.35,14.12,30.43,0,54.82-7.92,73.18-23.77,18.35-15.84,31.69-37.41,40-64.71,8.31-27.29,12.47-57.72,12.47-91.3s-4-65.65-12-92.47ZM363.78,299.54c-11.29,12.71-26.99,19.06-47.06,19.06-18.51,0-33.96-6.27-46.36-18.82-12.4-12.54-18.59-28.39-18.59-47.53,0-21.33,6.04-38.04,18.12-50.12,12.07-12.07,28.15-18.12,48.24-18.12,17.57,0,32.39,5.88,44.48,17.65,12.07,11.76,18.12,28.32,18.12,49.65,0,19.46-5.65,35.53-16.94,48.24ZM579.33,232.25c-1.89,15.53-5.26,29.73-10.12,42.59-4.87,12.87-11.77,23.06-20.71,30.59-8.94,7.53-20.47,11.29-34.59,11.29s-25.73-3.84-34.83-11.53c-9.1-7.68-16.08-17.88-20.94-30.59s-8.23-26.83-10.12-42.36c-1.88-15.53-2.82-31.29-2.82-47.3,0-17.57.94-34.19,2.82-49.88,1.89-15.68,5.25-29.65,10.12-41.88,4.86-12.24,11.84-21.89,20.94-28.94,9.1-7.06,20.71-10.59,34.83-10.59s25.65,3.53,34.59,10.59c8.94,7.06,15.84,16.71,20.71,28.94,4.86,12.24,8.23,26.2,10.12,41.88,1.88,15.69,2.82,32.32,2.82,49.88,0,16-.94,31.77-2.82,47.3Z"/>
      <path d="M513.67,211.59c-7.71,0-14.27-2.64-19.67-7.91-5.4-5.27-8.1-11.76-8.1-19.48s2.63-14.59,7.91-19.86c5.27-5.27,11.89-7.91,19.86-7.91s14.91,2.64,20.05,7.91c5.14,5.27,7.71,11.89,7.71,19.86s-2.64,14.21-7.91,19.48c-5.27,5.27-11.9,7.91-19.86,7.91Z"/>
    </g>
  </g>
</svg>